<?xml version="1.0" encoding="utf-8"?>
<!-- Generator: Adobe Illustrator 15.1.0, SVG Export Plug-In . SVG Version: 6.00 Build 0)  -->
<!DOCTYPE svg PUBLIC "-//W3C//DTD SVG 1.1//EN" "http://www.w3.org/Graphics/SVG/1.1/DTD/svg11.dtd">
<svg version="1.1" id="图层_1" xmlns="http://www.w3.org/2000/svg" xmlns:xlink="http://www.w3.org/1999/xlink" x="0px" y="0px"
	 width="100px" height="100px" viewBox="0 0 100 100" enable-background="new 0 0 100 100" xml:space="preserve">
<path fill="#323333" d="M90.871,13.531C90.871,6.609,85.259,1,78.34,1c-6.924,0-12.531,5.611-12.531,12.531
	c0,5.08,3.027,9.445,7.373,11.414c-1.185,10.17-10.748,12.224-20.209,15.181c-4.59,1.435-9.931,3.109-14.446,6.352V25.038
	c4.452-1.922,7.573-6.35,7.573-11.507C46.1,6.609,40.488,1,33.566,1S21.035,6.611,21.035,13.531c0,5.158,3.119,9.585,7.572,11.507
	v39.646c-4.453,1.924-7.572,6.348-7.572,11.506c0,6.922,5.61,12.531,12.532,12.531S46.1,83.109,46.1,76.189
	c0-5.082-3.029-9.445-7.377-11.412c1.188-10.174,7.75-12.225,17.209-15.182c9.631-3.009,25.588-7.061,27.197-24.485
	C87.673,23.228,90.871,18.753,90.871,13.531z M26.337,13.531c0-3.993,3.238-7.229,7.229-7.229c3.993,0,7.23,3.237,7.23,7.229
	c0,3.994-3.238,7.231-7.23,7.231S26.337,17.525,26.337,13.531z M33.566,83.422c-3.991,0-7.229-3.236-7.229-7.23
	s3.238-7.23,7.229-7.23c3.993,0,7.23,3.236,7.23,7.23S37.559,83.422,33.566,83.422z M78.34,20.762c-3.993,0-7.23-3.237-7.23-7.231
	c0-3.993,3.237-7.229,7.23-7.229c3.994,0,7.229,3.237,7.229,7.229C85.568,17.525,82.334,20.762,78.34,20.762z"/>
</svg>
